<svg width="120" height="60" viewBox="0 0 120 60" fill="none" xmlns="http://www.w3.org/2000/svg">
<g clip-path="url(#clip0_201_3912)">
<path d="M21.8542 24.2948V41.9465L20.1205 43.0073L18.3857 41.9403V24.3084L13.8929 27.0778V42.1732L20.1205 45.9879L26.4009 42.1461V27.0683L21.8542 24.2948ZM20.1205 15L7.02246 22.9447V38.0425L10.4241 40.0488V24.95L20.1232 19.0455L29.8311 24.9412L29.8711 24.9636L29.8664 40.0254L33.2351 38.0415V22.9447L20.1205 15Z" fill="black" fill-opacity="0.5"/>
<path d="M33.2351 22.9441L20.1208 15.0004L7.02246 22.9441L10.4234 24.9497L20.1229 19.0452L29.8714 24.9639L33.2351 22.9441ZM21.8542 24.2942V29.8602L26.4009 27.0673L21.8542 24.2942ZM13.8926 27.0785L18.3844 29.8252V24.3081L13.8926 27.0785Z" fill="black" fill-opacity="0.5"/>
<path d="M53.2378 37.4712L52.3351 25.9277L47.7562 37.534H46.2646L41.6866 25.9277L40.8047 37.4712H38.957L40.1116 22.9637H42.5482L47.0638 34.8647L51.5783 22.9637H53.9939L55.1278 37.4712H53.2378ZM62.751 32.3828C59.0544 32.7406 58.2782 33.7488 58.2782 34.7802C58.2782 35.5997 58.8235 36.1258 59.7695 36.1258C60.862 36.1258 61.9104 35.5793 62.751 34.7167V32.3828ZM63.1074 37.4712L62.8975 36.1258C62.0997 36.945 61.0082 37.6813 59.3697 37.6813C57.5641 37.6813 56.4302 36.5875 56.4302 34.8844C56.4302 32.3831 58.5708 31.396 62.7514 30.9533V30.5327C62.7514 29.2712 61.9956 28.8295 60.8393 28.8295C59.6217 28.8295 58.4674 29.208 57.3749 29.6914L57.1223 28.0728C58.3196 27.5884 59.4538 27.2313 61.0082 27.2313C63.4441 27.2313 64.6194 28.2188 64.6194 30.4485V37.4715L63.1074 37.4712ZM70.2264 28.5983C68.9664 28.5983 68.1896 29.5672 68.1896 30.7849C68.1896 31.9415 68.9877 32.8441 70.2264 32.8441C71.5085 32.8441 72.3057 31.8997 72.3057 30.7004C72.3057 29.5024 71.4654 28.5983 70.2264 28.5983ZM67.4971 38.565C67.4971 39.3638 68.5263 39.9521 70.4787 39.9521C72.4318 39.9521 73.5233 39.2796 73.5233 38.4383C73.5233 37.828 73.0625 37.4087 71.6346 37.1565L70.4363 36.9453C69.8914 36.8411 69.5974 36.778 69.1983 36.6938C68.0217 37.2821 67.4971 37.8707 67.4971 38.565ZM75.3509 27.2954L75.6239 28.9769L73.7128 29.1656C73.9861 29.6286 74.1133 30.1545 74.1133 30.7218C74.1133 32.8672 72.306 34.1695 70.2691 34.1695C70.0169 34.1695 69.7646 34.1484 69.5133 34.1063C69.219 34.2961 69.0108 34.5283 69.0108 34.717C69.0108 35.0738 69.3665 35.159 71.1297 35.4744L71.8438 35.5993C73.9668 35.9778 75.2882 36.6497 75.2882 38.2061C75.2882 40.3092 72.9987 41.2971 70.3956 41.2971C67.7911 41.2971 65.7119 40.4776 65.7119 38.712C65.7119 37.681 66.426 36.8822 67.8328 36.1255C67.392 35.8101 67.2038 35.4523 67.2038 35.0731C67.2038 34.5887 67.5816 34.1056 68.253 33.7071C67.1418 33.1605 66.3836 32.0888 66.3836 30.7211C66.3836 28.5559 68.1902 27.2316 70.2271 27.2316C71.2355 27.2316 72.1178 27.5253 72.8099 28.0728L75.3509 27.2954ZM79.9709 28.7036C78.8164 28.7036 77.8286 29.5241 77.5343 31.2469H82.3638C82.1346 29.6283 81.4205 28.7036 79.9709 28.7036ZM84.2556 32.6564H77.4515C77.5143 34.9906 78.6255 36.0844 80.3697 36.0844C81.8189 36.0844 82.8701 35.5165 83.9609 34.6539L84.2332 36.336C83.1641 37.1769 81.882 37.6817 80.2232 37.6817C77.6197 37.6817 75.5819 36.1045 75.5819 32.4252C75.5819 29.2084 77.4726 27.233 79.9926 27.233C82.9108 27.233 84.2562 29.482 84.2562 32.2569L84.2556 32.6564ZM92.1304 37.4712V30.6376C92.1304 29.6079 91.6896 28.9137 90.5974 28.9137C89.611 28.9137 88.6022 29.5669 87.6996 30.533V37.4715H85.8302V27.4418H87.3212L87.5521 28.8923C88.4961 28.0311 89.6734 27.2309 91.1009 27.2309C92.9899 27.2309 94.0004 28.3661 94.0004 30.1742V37.4705L92.1304 37.4712ZM99.5227 37.6396C97.7578 37.6396 96.6039 37.0098 96.6039 34.9893V29.0193H95.0909V27.4421H96.6039V24.0989L98.4325 23.8263V27.4414H100.593L100.846 29.0186H98.4325V34.6532C98.4325 35.4744 98.7672 35.9778 99.8173 35.9778C100.153 35.9778 100.447 35.9571 100.678 35.9147L100.931 37.5102C100.615 37.5757 100.175 37.6396 99.5227 37.6396ZM105.718 28.8085C103.911 28.8085 103.008 30.3639 103.008 32.467C103.008 34.5283 103.953 36.1255 105.718 36.1255C107.566 36.1255 108.489 34.569 108.489 32.467C108.489 30.4067 107.524 28.8085 105.718 28.8085ZM105.718 37.6817C103.05 37.6817 101.118 35.7684 101.118 32.4677C101.118 29.1653 103.05 27.2333 105.718 27.2333C108.406 27.2333 110.379 29.1653 110.379 32.4677C110.379 35.7684 108.406 37.6817 105.718 37.6817ZM111.698 27.0965H111.508V27.5229H111.687C111.849 27.5229 111.951 27.4553 111.951 27.3097C111.952 27.1695 111.86 27.0965 111.698 27.0965ZM112.079 28.3369L111.648 27.7194H111.508V28.3149H111.261V26.8718H111.698C112.003 26.8718 112.204 27.0235 112.204 27.2924C112.204 27.4998 112.091 27.6359 111.911 27.6919L112.327 28.2813L112.079 28.3369ZM111.705 26.4838C111.099 26.4838 110.616 26.8993 110.616 27.6403C110.616 28.376 111.099 28.7918 111.705 28.7918C112.317 28.7918 112.799 28.376 112.799 27.6403C112.798 26.8993 112.31 26.4838 111.705 26.4838ZM111.705 28.9436C110.953 28.9436 110.431 28.4215 110.431 27.6403C110.431 26.8653 110.964 26.332 111.705 26.332C112.456 26.332 112.977 26.8602 112.977 27.6403C112.977 28.416 112.444 28.9436 111.705 28.9436Z" fill="#010101" fill-opacity="0.5"/>
</g>
<defs>
<clipPath id="clip0_201_3912">
<rect width="106" height="30.9879" fill="white" transform="translate(7 15)"/>
</clipPath>
</defs>
</svg>
