<svg width="120" height="60" viewBox="0 0 120 60" fill="none" xmlns="http://www.w3.org/2000/svg">
<path d="M37.0721 19.164C37.0598 19.0874 37.0224 19.017 36.9657 18.964C36.9091 18.9109 36.8364 18.8782 36.7591 18.871C36.6341 18.851 33.8891 18.661 33.8891 18.661L31.7961 16.568C31.6081 16.358 31.1901 16.42 31.0321 16.464C31.0121 16.464 30.6141 16.589 29.9651 16.8C29.3331 14.974 28.2151 13.298 26.2471 13.298H26.0791C25.5141 12.568 24.8241 12.231 24.2391 12.231C19.6551 12.251 17.4691 17.969 16.7791 20.891L13.5751 21.874C12.5921 22.187 12.5551 22.21 12.4251 23.147L9.72412 43.98L29.9721 47.77L40.9461 45.404C40.9461 45.384 37.0931 19.364 37.0731 19.166L37.0721 19.164ZM28.8421 17.152C28.3321 17.32 27.7421 17.488 27.1261 17.677V17.3C27.1461 16.358 27.0031 15.42 26.7081 14.524C27.7341 14.682 28.4241 15.834 28.8421 17.152ZM25.4721 14.766C25.8071 15.753 25.9721 16.793 25.9301 17.836V18.024L22.3901 19.124C23.0831 16.537 24.3601 15.258 25.4701 14.777L25.4721 14.766ZM24.1121 13.493C24.3221 13.498 24.5251 13.563 24.6981 13.681C23.2211 14.369 21.6601 16.105 20.9901 19.581L18.1901 20.439C18.9801 17.801 20.8231 13.487 24.1101 13.487L24.1121 13.493Z" fill="black" fill-opacity="0.5"/>
<path d="M36.7601 18.87C36.6351 18.85 33.8901 18.66 33.8901 18.66L31.7971 16.567C31.7201 16.487 31.6151 16.443 31.5041 16.442L29.9761 47.766L40.9501 45.4L37.0741 19.182C37.0481 19.022 36.9221 18.894 36.7611 18.869L36.7601 18.87Z" fill="black" fill-opacity="0.5"/>
<path d="M26.246 24.942L24.884 28.962C24.061 28.562 23.16 28.349 22.246 28.332C20.109 28.332 20.006 29.672 20.006 30.008C20.006 31.838 24.801 32.542 24.801 36.856C24.801 40.248 22.644 42.426 19.754 42.426C16.278 42.426 14.498 40.269 14.498 40.269L15.422 37.189C15.422 37.189 17.242 38.759 18.794 38.759C18.9795 38.7663 19.1646 38.7359 19.338 38.6695C19.5114 38.6031 19.6694 38.5022 19.8026 38.3728C19.9358 38.2435 20.0413 38.0884 20.1127 37.9171C20.1841 37.7457 20.22 37.5616 20.218 37.376C20.218 34.966 16.281 34.862 16.281 30.926C16.281 27.616 18.667 24.391 23.463 24.391C25.348 24.419 26.249 24.941 26.249 24.941L26.246 24.942Z" fill="#E6E6E6"/>
<path d="M50.474 30.93C49.691 30.51 49.286 30.147 49.286 29.65C49.286 29.02 49.836 28.613 50.729 28.613C51.3919 28.6274 52.0457 28.7704 52.654 29.034L53.376 26.84C53.376 26.84 52.714 26.328 50.774 26.328C48.068 26.328 46.188 27.878 46.188 30.056C46.188 31.288 47.06 32.236 48.232 32.912C49.179 33.462 49.512 33.826 49.512 34.4C49.512 34.974 49.046 35.453 48.159 35.453C46.852 35.453 45.619 34.777 45.619 34.777L44.853 36.971C44.853 36.971 45.996 37.737 47.905 37.737C50.685 37.737 52.685 36.369 52.685 33.897C52.7 32.559 51.692 31.627 50.485 30.92L50.474 30.93ZM61.568 26.315C60.2 26.315 59.118 26.962 58.29 27.961L58.244 27.946L59.432 21.73H56.337L53.33 37.56H56.427L57.464 32.148C57.87 30.104 58.927 28.84 59.914 28.84C60.604 28.84 60.876 29.306 60.876 29.983C60.876 30.443 60.83 30.9 60.741 31.351L59.569 37.545H62.666L63.884 31.145C64.017 30.482 64.094 29.809 64.109 29.135C64.094 27.391 63.177 26.339 61.569 26.339L61.568 26.315ZM71.098 26.315C67.37 26.315 64.904 29.683 64.904 33.415C64.904 35.821 66.392 37.745 69.174 37.745C72.831 37.745 75.308 34.467 75.308 30.645C75.308 28.42 74.001 26.315 71.103 26.315H71.098ZM69.578 35.38C68.525 35.38 68.075 34.48 68.075 33.37C68.075 31.596 68.989 28.695 70.677 28.695C71.774 28.695 72.14 29.642 72.14 30.56C72.136 32.465 71.22 35.38 69.58 35.38H69.578ZM83.228 26.315C81.128 26.315 79.95 28.143 79.95 28.143H79.904L80.087 26.497H77.344L76.714 30.602L74.564 41.938H77.647L78.505 37.352H78.565C78.565 37.352 79.195 37.758 80.385 37.758C84.023 37.758 86.398 34.03 86.398 30.262C86.413 28.187 85.484 26.324 83.226 26.324L83.228 26.315ZM80.266 35.425C79.7987 35.4343 79.3439 35.2737 78.986 34.973L79.498 32.071C79.864 30.146 80.866 28.853 81.948 28.853C82.895 28.853 83.18 29.725 83.18 30.553C83.185 32.57 82 35.426 80.27 35.426L80.266 35.425ZM90.836 21.865C90.362 21.862 89.906 22.05 89.573 22.387C89.24 22.724 89.055 23.181 89.073 23.655C89.073 24.569 89.66 25.205 90.536 25.205H90.582C90.821 25.2145 91.0594 25.1749 91.2824 25.0887C91.5055 25.0025 91.7085 24.8715 91.879 24.7037C92.0494 24.536 92.1837 24.3351 92.2735 24.1135C92.3633 23.8918 92.4067 23.6541 92.401 23.415C92.401 22.515 91.799 21.865 90.851 21.865H90.836ZM86.51 37.53H89.607L91.711 26.56H88.603M99.603 26.545H97.44L97.546 26.033C97.729 24.98 98.358 24.033 99.374 24.033C99.7107 24.0331 100.045 24.0837 100.367 24.183L100.965 21.76C100.965 21.76 100.415 21.49 99.281 21.49C98.1774 21.4626 97.1004 21.8304 96.244 22.527C95.191 23.427 94.694 24.721 94.444 26.03L94.344 26.542H92.901L92.449 28.872H93.892L92.246 37.532H95.354L97 28.872H99.136L99.556 26.542L99.603 26.545ZM107.061 26.56L104.249 34.107H104.203L103.437 26.56H100.173L102.038 36.632C102.083 36.8042 102.061 36.9869 101.978 37.144C101.573 37.891 100.996 38.53 100.294 39.009C99.756 39.379 99.169 39.673 98.55 39.881L99.408 42.511C100.542 42.2074 101.584 41.627 102.439 40.822C103.852 39.498 105.159 37.454 106.499 34.672L110.287 26.554H107.06L107.061 26.56Z" fill="black" fill-opacity="0.5"/>
</svg>
